<svg xmlns="http://www.w3.org/2000/svg" width="508" height="435" viewBox="0 0 508 435" version="1.1">
	<path d="M 261.500 1.164 C 257.153 3.563, 253.600 7.813, 250.376 14.472 C 248.519 18.306, 247 22.003, 247 22.687 C 247 24.670, 244.029 25.679, 236.125 26.382 C 226.771 27.213, 213.241 30.168, 205.500 33.070 C 199.209 35.429, 193 40.609, 193 43.500 C 193 44.435, 194.590 46.790, 196.533 48.733 C 198.477 50.677, 199.939 52.354, 199.783 52.461 C 199.628 52.567, 196.350 53.203, 192.500 53.874 C 137.145 63.515, 83.040 91.583, 47.799 128.940 C 16.519 162.099, 0.799 199.477, 0.670 241 C 0.562 275.862, 10.399 305.111, 32.696 336.226 C 44.047 352.064, 66.422 373.384, 84.775 385.848 C 136.955 421.282, 208.739 439.298, 277 434.092 C 332.808 429.836, 380.479 414.202, 421.500 386.703 C 435.428 377.367, 443.511 370.670, 456.041 358.089 C 483.715 330.299, 500.146 299.334, 505.661 264.573 C 507.655 252.009, 507.022 222.334, 504.519 211 C 496.342 173.973, 473.995 138.494, 442.058 111.834 C 412.246 86.948, 372.897 67.372, 333.750 57.952 C 328.387 56.662, 324.029 55.357, 324.065 55.053 C 324.101 54.749, 326.906 53.143, 330.297 51.484 C 337.513 47.954, 339.448 44.670, 336.942 40.205 C 333.858 34.711, 317.574 29.097, 297.893 26.744 L 288.011 25.562 286.869 22.031 C 283.727 12.315, 278.219 4.242, 272.800 1.411 C 269.597 -0.262, 264.295 -0.378, 261.500 1.164" stroke="none" fill="black" fill-rule="evenodd"/>
</svg>